<svg width="3673" height="608" viewBox="0 0 3673 608" fill="none" xmlns="http://www.w3.org/2000/svg">
<path d="M2445.79 157.135L2459.35 98" stroke="#FF9900" stroke-width="33.3333"/>
<path d="M2359.6 531.61L2373.2 472.486" stroke="#FF9900" stroke-width="33.3333"/>
<path d="M2282.14 280.416L2536.7 349.303" stroke="white" stroke-width="33.3333"/>
<path d="M2259.5 378.963L2514.09 447.76" stroke="white" stroke-width="33.3333"/>
<path d="M2241.58 313.257C2245.43 300.808 2251.66 290.296 2260.25 281.722C2268.84 273.147 2279.69 266.876 2292.8 262.908C2305.95 258.794 2321.19 257.254 2338.53 258.287C2356.05 259.22 2375.58 263.019 2397.11 269.685C2413.08 274.627 2429.48 280.991 2446.33 288.776C2463.33 296.606 2480.45 305.839 2497.7 316.477C2499.51 308.048 2499.36 299.735 2497.24 291.536C2495.17 283.191 2491.1 275.349 2485.02 268.012C2479.14 260.573 2471.28 253.807 2461.45 247.714C2451.77 241.667 2440.19 236.557 2426.72 232.385C2419.39 230.118 2411.2 228.063 2402.14 226.221C2393.08 224.38 2383.59 222.886 2373.68 221.742C2363.76 220.597 2353.78 219.915 2343.73 219.694C2333.84 219.519 2324.37 220.038 2315.32 221.251L2312.08 161.744C2322.98 161.267 2334.45 161.287 2346.49 161.804C2358.67 162.367 2370.94 163.436 2383.29 165.014C2395.69 166.444 2407.93 168.388 2420.01 170.843C2432.09 173.299 2443.62 176.228 2454.61 179.629C2503.08 194.638 2535.28 218.168 2551.2 250.221C2567.12 282.273 2567.16 323.857 2551.34 374.972L2516.38 487.894L2451.35 467.761L2458.9 443.375C2450.93 445.244 2442.38 446.689 2433.24 447.71C2424.24 448.776 2414.65 449.177 2404.46 448.911C2394.27 448.645 2383.53 447.567 2372.24 445.676C2361.05 443.977 2349.45 441.268 2337.44 437.55C2317.22 431.292 2300.11 423.586 2286.09 414.431C2272.22 405.321 2261.36 395.298 2253.51 384.361C2245.66 373.425 2240.71 361.941 2238.66 349.91C2236.8 337.777 2237.77 325.56 2241.58 313.257ZM2310.8 332.282C2309.49 336.529 2309.32 340.97 2310.29 345.605C2311.31 350.093 2313.76 354.623 2317.64 359.195C2321.56 363.621 2326.97 367.942 2333.85 372.158C2340.92 376.274 2349.8 379.987 2360.49 383.297C2371.92 386.834 2383.29 389.232 2394.62 390.492C2405.94 391.751 2416.74 392.125 2427.01 391.613C2437.28 391.101 2446.83 389.805 2455.66 387.724C2464.49 385.642 2472.12 383.029 2478.55 379.884L2482.09 368.46C2472.99 362.594 2463.83 357.19 2454.61 352.248C2445.53 347.351 2436.68 343.007 2428.07 339.216C2419.64 335.323 2411.54 331.933 2403.77 329.045C2396.14 326.202 2389.4 323.874 2383.54 322.06C2371.39 318.297 2361.03 315.974 2352.48 315.091C2343.92 314.208 2336.73 314.387 2330.88 315.628C2325.09 316.722 2320.6 318.783 2317.41 321.81C2314.23 324.837 2312.03 328.327 2310.8 332.282Z" fill="white"/>
<path d="M2643.34 369.059C2656.38 376.418 2669.56 383.088 2682.9 389.067C2696.39 394.894 2710.35 399.876 2724.76 404.016C2739.17 408.002 2754.27 411.069 2770.06 413.215C2786.01 415.362 2802.95 416.435 2820.89 416.435C2842.51 416.435 2860.91 415.055 2876.08 412.295C2891.26 409.382 2903.61 405.473 2913.11 400.566C2922.77 395.507 2929.75 389.527 2934.04 382.628C2938.49 375.729 2940.71 368.216 2940.71 360.09C2940.71 347.058 2935.27 336.785 2924.38 329.272C2913.49 321.606 2896.71 317.773 2874.01 317.773C2864.05 317.773 2853.55 318.463 2842.51 319.843C2831.47 321.07 2820.28 322.45 2808.93 323.983C2797.74 325.516 2786.62 326.973 2775.58 328.353C2764.7 329.579 2754.42 330.192 2744.77 330.192C2728.67 330.192 2713.18 328.123 2698.31 323.983C2683.59 319.843 2670.48 313.634 2658.98 305.354C2647.64 297.075 2638.59 286.726 2631.85 274.307C2625.1 261.888 2621.73 247.399 2621.73 230.841C2621.73 221.028 2623.03 211.292 2625.64 201.633C2628.4 191.974 2632.69 182.775 2638.51 174.036C2644.49 165.143 2652.16 156.94 2661.51 149.428C2670.87 141.762 2682.13 135.169 2695.32 129.649C2708.66 124.13 2723.99 119.837 2741.32 116.771C2758.79 113.551 2778.65 111.941 2800.88 111.941C2816.98 111.941 2833.15 112.861 2849.41 114.701C2865.66 116.387 2881.45 118.84 2896.78 122.06C2912.27 125.28 2927.14 129.189 2941.4 133.789C2955.66 138.235 2968.92 143.218 2981.19 148.738L2949.22 207.613C2939.1 203.167 2928.21 199.104 2916.56 195.424C2904.91 191.591 2892.72 188.294 2879.99 185.535C2867.27 182.775 2854.08 180.628 2840.44 179.095C2826.95 177.409 2813.15 176.565 2799.04 176.565C2778.96 176.565 2762.4 178.022 2749.37 180.935C2736.49 183.848 2726.21 187.604 2718.55 192.204C2710.88 196.65 2705.52 201.71 2702.45 207.383C2699.54 212.902 2698.08 218.422 2698.08 223.941C2698.08 234.674 2702.91 243.49 2712.57 250.389C2722.23 257.135 2736.95 260.508 2756.72 260.508C2764.7 260.508 2773.82 259.972 2784.09 258.898C2794.52 257.672 2805.4 256.369 2816.75 254.989C2828.25 253.609 2839.9 252.382 2851.71 251.309C2863.67 250.083 2875.24 249.469 2886.43 249.469C2907.59 249.469 2926.3 251.846 2942.55 256.599C2958.95 261.352 2972.68 268.174 2983.72 277.067C2994.75 285.806 3003.11 296.462 3008.78 309.034C3014.46 321.453 3017.29 335.405 3017.29 350.891C3017.29 371.589 3012.46 390.064 3002.8 406.316C2993.3 422.415 2979.65 436.06 2961.87 447.252C2944.24 458.292 2922.92 466.724 2897.93 472.55C2872.94 478.223 2845.11 481.06 2814.45 481.06C2794.21 481.06 2774.43 479.756 2755.11 477.15C2735.8 474.697 2717.24 471.17 2699.46 466.571C2681.83 461.818 2664.96 456.222 2648.86 449.782C2632.92 443.189 2618.12 435.983 2604.48 428.164L2643.34 369.059ZM3076.17 390.447C3076.17 377.415 3079 365.533 3084.68 354.8C3090.35 344.068 3098.86 334.869 3110.2 327.203C3121.55 319.383 3135.66 313.404 3152.52 309.264C3169.54 304.971 3189.32 302.825 3211.86 302.825C3228.57 302.825 3246.12 304.051 3264.52 306.504C3283.07 308.958 3302.16 312.714 3321.79 317.773C3321.02 309.188 3318.41 301.292 3313.97 294.085C3309.52 286.726 3303.31 280.44 3295.34 275.227C3287.52 269.861 3278.01 265.721 3266.82 262.808C3255.78 259.895 3243.21 258.438 3229.1 258.438C3221.44 258.438 3213.01 258.898 3203.81 259.818C3194.61 260.738 3185.1 262.118 3175.29 263.958C3165.48 265.798 3155.74 268.098 3146.08 270.857C3136.58 273.617 3127.68 276.914 3119.4 280.747L3098.71 224.861C3108.98 221.182 3119.94 217.809 3131.59 214.742C3143.4 211.676 3155.43 209.069 3167.7 206.923C3179.97 204.623 3192.23 202.86 3204.5 201.633C3216.76 200.407 3228.64 199.793 3240.14 199.793C3290.89 199.793 3328.61 212.749 3353.29 238.66C3377.98 264.571 3390.32 304.281 3390.32 357.79V476H3322.25V450.472C3315.19 454.612 3307.45 458.521 3299.02 462.201C3290.74 465.881 3281.69 469.101 3271.88 471.86C3262.07 474.62 3251.49 476.767 3240.14 478.3C3228.95 479.986 3217.07 480.83 3204.5 480.83C3183.34 480.83 3164.71 478.53 3148.61 473.93C3132.67 469.331 3119.33 462.968 3108.59 454.842C3097.86 446.716 3089.74 437.21 3084.22 426.324C3078.85 415.285 3076.17 403.326 3076.17 390.447ZM3147.92 388.147C3147.92 392.594 3149.07 396.887 3151.37 401.026C3153.67 405.013 3157.35 408.616 3162.41 411.835C3167.47 414.902 3173.91 417.432 3181.73 419.425C3189.7 421.265 3199.28 422.185 3210.48 422.185C3222.44 422.185 3234.01 421.111 3245.2 418.965C3256.4 416.818 3266.82 413.982 3276.48 410.456C3286.14 406.929 3294.88 402.866 3302.7 398.267C3310.52 393.667 3317.03 388.914 3322.25 384.008V372.049C3311.82 369.136 3301.47 366.683 3291.2 364.689C3281.08 362.696 3271.34 361.163 3261.99 360.09C3252.79 358.863 3244.05 358.02 3235.77 357.56C3227.65 357.1 3220.52 356.87 3214.39 356.87C3201.66 356.87 3191.08 357.713 3182.65 359.4C3174.22 361.086 3167.39 363.386 3162.18 366.299C3156.97 369.059 3153.29 372.355 3151.14 376.188C3148.99 380.021 3147.92 384.008 3147.92 388.147ZM3521.41 255.679H3455.87V204.623H3521.41V120.22H3589.48V204.623H3655.03V255.679H3589.48V476H3521.41V255.679Z" fill="#FF9A01"/>
<path d="M729.556 101.541H802.459V397.065H1011.51V461H729.556V101.541ZM1060.96 324.392C1060.96 305.993 1064.71 288.438 1072.23 271.726C1079.74 254.861 1090.55 239.989 1104.65 227.11C1118.76 214.231 1136.01 203.958 1156.4 196.292C1176.94 188.626 1200.25 184.793 1226.31 184.793C1252.22 184.793 1275.53 188.703 1296.23 196.522C1317.08 204.188 1334.71 214.768 1349.12 228.26C1363.69 241.752 1374.8 257.621 1382.47 275.866C1390.29 294.111 1394.2 313.659 1394.2 334.511C1394.2 337.117 1394.12 339.954 1393.97 343.02C1393.97 345.933 1393.82 348.616 1393.51 351.069H1136.85C1139.76 359.195 1144.44 366.631 1150.88 373.377C1157.47 380.124 1165.68 385.95 1175.49 390.856C1185.3 395.762 1196.65 399.595 1209.52 402.355C1222.4 404.961 1236.66 406.265 1252.3 406.265C1267.94 406.265 1283.5 404.655 1298.99 401.435C1314.47 398.062 1329.27 393.846 1343.37 388.786L1366.37 440.762C1357.48 444.901 1348.43 448.581 1339.23 451.801C1330.19 454.867 1320.68 457.474 1310.72 459.62C1300.9 461.613 1290.55 463.146 1279.67 464.22C1268.94 465.293 1257.59 465.83 1245.63 465.83C1215.12 465.83 1188.37 462.15 1165.37 454.791C1142.37 447.431 1123.13 437.389 1107.64 424.663C1092.16 411.938 1080.51 396.989 1072.69 379.817C1064.87 362.645 1060.96 344.17 1060.96 324.392ZM1321.99 297.944C1319.53 290.431 1315.7 283.455 1310.49 277.016C1305.43 270.423 1299.06 264.75 1291.4 259.997C1283.73 255.091 1274.84 251.258 1264.72 248.498C1254.6 245.738 1243.49 244.358 1231.37 244.358C1218.49 244.358 1206.77 245.815 1196.19 248.728C1185.61 251.641 1176.33 255.551 1168.36 260.457C1160.39 265.363 1153.72 271.036 1148.35 277.476C1143.14 283.915 1139.3 290.738 1136.85 297.944H1321.99ZM1467.56 189.623H1535.64V212.621C1553.73 202.349 1570.98 195.143 1587.38 191.003C1603.94 186.863 1620.12 184.793 1635.91 184.793C1656.61 184.793 1675.77 187.86 1693.4 193.993C1711.04 199.972 1726.29 208.941 1739.17 220.9C1752.05 232.859 1762.09 247.808 1769.3 265.747C1776.66 283.532 1780.34 304.153 1780.34 327.611V461H1712.49V338.65C1712.49 323.778 1710.35 310.516 1706.05 298.864C1701.91 287.058 1695.86 277.169 1687.88 269.196C1680.06 261.07 1670.48 254.938 1659.14 250.798C1647.94 246.505 1635.37 244.358 1621.42 244.358C1614.06 244.358 1606.47 245.125 1598.65 246.658C1590.99 248.191 1583.4 250.415 1575.88 253.328C1568.52 256.087 1561.4 259.614 1554.5 263.907C1547.6 268.046 1541.31 272.799 1535.64 278.166V461H1467.56V189.623ZM1843.12 326.461C1843.12 304.843 1847.18 285.372 1855.31 268.046C1863.44 250.568 1874.63 235.696 1888.89 223.43C1903.3 211.011 1920.32 201.505 1939.94 194.913C1959.72 188.167 1981.11 184.793 2004.11 184.793C2013.92 184.793 2023.58 185.407 2033.08 186.633C2042.74 187.86 2051.94 189.546 2060.68 191.693C2069.58 193.839 2077.85 196.446 2085.52 199.512C2093.34 202.425 2100.24 205.645 2106.22 209.171V79.4624H2174.29V461H2106.22V435.472C2100.24 439.612 2093.19 443.521 2085.06 447.201C2076.93 450.881 2068.2 454.101 2058.84 456.86C2049.49 459.62 2039.75 461.767 2029.64 463.3C2019.67 464.986 2009.78 465.83 1999.97 465.83C1976.97 465.83 1955.81 462.457 1936.49 455.71C1917.33 448.964 1900.85 439.458 1887.05 427.193C1873.25 414.927 1862.44 400.285 1854.62 383.267C1846.95 366.095 1843.12 347.16 1843.12 326.461ZM1914.65 326.461C1914.65 337.347 1916.79 347.62 1921.08 357.279C1925.53 366.938 1931.82 375.447 1939.94 382.807C1948.22 390.013 1958.11 395.762 1969.61 400.055C1981.26 404.195 1994.29 406.265 2008.71 406.265C2017.91 406.265 2027.11 405.421 2036.3 403.735C2045.5 401.895 2054.32 399.365 2062.75 396.146C2071.34 392.926 2079.31 389.016 2086.67 384.417C2094.18 379.817 2100.7 374.681 2106.22 369.008V274.946C2099.32 269.426 2092.04 264.75 2084.37 260.917C2076.7 257.084 2068.89 253.941 2060.91 251.488C2052.94 249.035 2044.89 247.271 2036.76 246.198C2028.64 244.972 2020.74 244.358 2013.08 244.358C1997.44 244.358 1983.49 246.505 1971.22 250.798C1959.11 254.938 1948.84 260.687 1940.4 268.046C1932.12 275.406 1925.76 284.068 1921.31 294.034C1916.87 304 1914.65 314.809 1914.65 326.461Z" fill="white"/>
<circle cx="305" cy="304" r="277.5" stroke="white" stroke-width="43"/>
<path d="M328.008 156.039L341.05 85.8164" stroke="#FF9900" stroke-width="33.3333"/>
<path d="M239.508 527.863L252.595 457.654" stroke="#FF9900" stroke-width="33.3333"/>
<path d="M130.078 312.257C133.933 299.808 140.156 289.296 148.75 280.722C157.343 272.147 168.192 265.876 181.297 261.908C194.448 257.794 209.691 256.254 227.026 257.287C244.553 258.22 264.081 262.019 285.611 268.685C301.575 273.627 317.983 279.991 334.832 287.776C351.829 295.606 368.952 304.839 386.203 315.477C388.01 307.048 387.855 298.735 385.739 290.536C383.668 282.191 379.596 274.349 373.522 267.012C367.639 259.573 359.783 252.807 349.953 246.714C340.269 240.667 328.69 235.557 315.215 231.385C307.892 229.118 299.701 227.063 290.641 225.221C281.581 223.38 272.093 221.886 262.175 220.742C252.257 219.597 242.277 218.915 232.234 218.694C222.337 218.519 212.867 219.038 203.825 220.251L200.58 160.744C211.482 160.267 222.951 160.287 234.989 160.804C247.174 161.367 259.442 162.436 271.793 164.014C284.191 165.444 296.429 167.388 308.509 169.843C320.588 172.299 332.12 175.228 343.105 178.629C391.584 193.638 423.782 217.168 439.699 249.221C455.616 281.273 455.662 322.857 439.836 373.972L404.875 486.894L339.847 466.761L347.396 442.375C339.435 444.244 330.882 445.689 321.739 446.71C312.741 447.776 303.148 448.177 292.958 447.911C282.769 447.645 272.028 446.567 260.736 444.676C249.546 442.977 237.946 440.268 225.936 436.55C205.724 430.292 188.609 422.586 174.591 413.431C160.719 404.321 149.859 394.298 142.01 383.361C134.161 372.425 129.21 360.941 127.157 348.91C125.295 336.777 126.269 324.56 130.078 312.257ZM199.302 331.282C197.987 335.529 197.816 339.97 198.789 344.605C199.807 349.093 202.256 353.623 206.137 358.195C210.064 362.621 215.467 366.942 222.347 371.158C229.419 375.274 238.3 378.987 248.992 382.297C260.416 385.834 271.791 388.232 283.118 389.492C294.444 390.751 305.243 391.125 315.513 390.613C325.783 390.101 335.333 388.805 344.163 386.724C352.992 384.642 360.623 382.029 367.053 378.884L370.59 367.46C361.492 361.594 352.332 356.19 343.108 351.248C334.031 346.351 325.185 342.007 316.568 338.216C308.143 334.323 300.044 330.933 292.271 328.045C284.645 325.202 277.902 322.874 272.044 321.06C259.887 317.297 249.532 314.974 240.978 314.091C232.424 313.208 225.226 313.387 219.385 314.628C213.589 315.722 209.099 317.783 205.915 320.81C202.731 323.837 200.527 327.327 199.302 331.282Z" fill="url(#paint0_linear_3117_6345)"/>
<defs>
<linearGradient id="paint0_linear_3117_6345" x1="193.998" y1="169.5" x2="491.498" y2="241" gradientUnits="userSpaceOnUse">
<stop offset="0.2049" stop-color="white"/>
<stop offset="0.205" stop-color="#FF9900"/>
<stop offset="0.645" stop-color="#FF9900"/>
<stop offset="0.6451" stop-color="white"/>
</linearGradient>
</defs>
</svg>
