<svg width="851" height="538" viewBox="0 0 851 538" fill="none" xmlns="http://www.w3.org/2000/svg">
<path d="M805.894 0H45.106C20.1946 0 0 20.1755 0 45.0632V492.937C0 517.825 20.1946 538 45.106 538H805.894C830.805 538 851 517.825 851 492.937V45.0632C851 20.1755 830.805 0 805.894 0Z" fill="#010030"/>
<g clip-path="url(#clip0_5710_5305)">
<path d="M118.336 319.497C120.086 318.723 121.826 317.904 123.566 317.096C129.366 314.391 134.967 311.141 140.316 307.379V307.29L140.364 307.379C145.975 303.364 151.256 298.755 156.143 293.611C160.114 289.235 163.692 283.962 165.576 277.902C167.456 271.794 167.221 265.072 164.922 259.163C160.191 246.674 149.73 238.786 140.326 231.56L140.201 231.784L140.316 231.548C139.672 231.088 139.028 230.628 138.393 230.179C132.586 226.364 126.54 223.067 120.307 220.316C118.961 219.699 117.595 219.093 116.22 218.554C115.461 218.251 113.97 217.432 113.336 218.218C112.701 219.003 113.432 220.159 114.095 220.743C116.663 222.987 119.316 224.962 121.48 227.756C123.644 230.55 125.403 233.826 125.268 237.652C125.144 241.232 123.346 244.463 121.278 246.977C116.846 252.285 111.182 256.033 105.539 259.163C102.712 260.756 99.8559 262.282 96.9328 263.651C95.2888 264.403 93.6348 265.132 92.0003 265.895C90.779 266.49 88 267.522 88 269.497C88 270.62 89.1539 271.484 89.923 271.955C92.5 273.626 95.4808 274.569 98.192 275.938C101.346 277.52 104.471 279.125 107.529 280.943C112.971 284.185 118.971 288.113 122.672 293.959C124.595 296.977 125.769 300.501 124.942 304.26C124.115 308.019 121.961 310.869 119.625 313.326C118.431 314.506 117.182 315.607 115.884 316.625C115.221 317.186 114.528 317.747 113.874 318.308C113.221 318.869 112.365 320.9 113.961 321.114C115.298 321.192 117.143 319.991 118.336 319.497Z" fill="white"/>
<path d="M229.741 319.639C227.534 319.639 225.695 318.957 224.223 317.594C222.751 316.126 222.016 314.343 222.016 312.246V204.178C222.016 201.976 222.699 200.193 224.065 198.83C225.537 197.467 227.324 196.785 229.426 196.785H267.424C274.151 196.785 280.142 198.148 285.398 200.875C290.759 203.602 294.963 207.377 298.011 212.201C301.06 217.025 302.584 222.583 302.584 228.875C302.584 234.223 301.112 239.047 298.169 243.347C295.331 247.542 291.494 250.793 286.659 253.1C293.597 254.883 299.168 258.291 303.372 263.324C307.682 268.358 309.836 274.86 309.836 282.83C309.836 290.066 308.155 296.463 304.791 302.021C301.427 307.474 296.75 311.774 290.759 314.92C284.872 318.066 278.093 319.639 270.42 319.639H229.741ZM236.836 305.796H270.42C275.36 305.796 279.669 304.905 283.348 303.122C287.132 301.339 290.075 298.77 292.178 295.414C294.385 291.954 295.489 287.759 295.489 282.83C295.489 278.216 294.385 274.336 292.178 271.19C290.075 268.044 287.132 265.632 283.348 263.954C279.669 262.276 275.36 261.437 270.42 261.437H236.836V305.796ZM236.836 247.594H267.424C273.52 247.594 278.513 246.021 282.402 242.875C286.397 239.624 288.394 234.957 288.394 228.875C288.394 222.793 286.397 218.231 282.402 215.19C278.513 212.148 273.52 210.628 267.424 210.628H236.836V247.594ZM333 266.156C333.211 259.759 334.839 254.044 337.888 249.01C341.041 243.976 345.193 239.991 350.343 237.055C355.493 234.119 361.169 232.65 367.371 232.65C373.152 232.65 377.462 233.542 380.3 235.324C383.243 237.107 384.346 239.362 383.611 242.089C383.296 243.662 382.665 244.815 381.719 245.549C380.773 246.178 379.669 246.546 378.408 246.65C377.147 246.65 375.781 246.546 374.309 246.336C367.898 245.287 362.168 245.444 357.123 246.808C352.078 248.171 348.083 250.53 345.14 253.886C342.198 257.242 340.726 261.332 340.726 266.156H333ZM333.473 319.639C331.266 319.639 329.531 319.062 328.27 317.909C327.008 316.65 326.378 314.867 326.378 312.56V240.673C326.378 238.471 327.008 236.74 328.27 235.482C329.531 234.223 331.266 233.594 333.473 233.594C335.891 233.594 337.677 234.223 338.834 235.482C340.095 236.635 340.726 238.366 340.726 240.673V312.56C340.726 314.763 340.095 316.493 338.834 317.751C337.677 319.01 335.891 319.639 333.473 319.639ZM404.205 319.639C401.997 319.639 400.21 318.957 398.844 317.594C397.478 316.231 396.794 314.501 396.794 312.403V240.83C396.794 238.628 397.478 236.898 398.844 235.639C400.21 234.276 401.997 233.594 404.205 233.594C406.307 233.594 408.042 234.276 409.408 235.639C410.773 236.898 411.457 238.628 411.457 240.83V312.403C411.457 314.501 410.773 316.231 409.408 317.594C408.042 318.957 406.307 319.639 404.205 319.639ZM404.047 218.65C401.42 218.65 399.159 217.707 397.267 215.819C395.375 213.931 394.429 211.624 394.429 208.898C394.429 206.171 395.375 203.916 397.267 202.133C399.264 200.246 401.577 199.302 404.205 199.302C406.727 199.302 408.935 200.246 410.827 202.133C412.823 203.916 413.822 206.171 413.822 208.898C413.822 211.624 412.876 213.931 410.984 215.819C409.092 217.707 406.78 218.65 404.047 218.65ZM508.718 319.796C506.616 319.796 504.83 319.115 503.358 317.751C501.992 316.283 501.308 314.553 501.308 312.56V272.92C501.308 266.733 500.151 261.699 497.839 257.819C495.528 253.834 492.425 250.898 488.537 249.01C484.649 247.017 480.181 246.021 475.135 246.021C470.405 246.021 466.148 246.965 462.364 248.853C458.58 250.74 455.531 253.257 453.219 256.403C451.012 259.549 449.908 263.167 449.908 267.257H440.448C440.553 260.65 442.236 254.778 445.494 249.639C448.752 244.396 453.166 240.306 458.738 237.369C464.309 234.328 470.563 232.808 477.5 232.808C484.857 232.808 491.428 234.381 497.209 237.527C502.989 240.568 507.562 245.077 510.926 251.055C514.29 257.032 515.971 264.321 515.971 272.92V312.56C515.971 314.553 515.236 316.283 513.764 317.751C512.398 319.115 510.715 319.796 508.718 319.796ZM442.656 319.796C440.553 319.796 438.818 319.115 437.453 317.751C436.087 316.388 435.403 314.658 435.403 312.56V240.83C435.403 238.628 436.087 236.898 437.453 235.639C438.818 234.276 440.553 233.594 442.656 233.594C444.863 233.594 446.597 234.276 447.859 235.639C449.225 236.898 449.908 238.628 449.908 240.83V312.56C449.908 314.658 449.225 316.388 447.859 317.751C446.597 319.115 444.863 319.796 442.656 319.796ZM572.998 320.268C564.903 320.268 557.757 318.433 551.555 314.763C545.459 310.987 540.623 305.849 537.049 299.347C533.581 292.74 531.846 285.19 531.846 276.695C531.846 268.096 533.685 260.546 537.365 254.044C541.149 247.437 546.299 242.298 552.816 238.628C559.438 234.853 566.953 232.965 575.363 232.965C583.877 232.965 591.391 234.853 597.909 238.628C604.427 242.298 609.523 247.437 613.203 254.044C616.987 260.546 618.932 268.096 619.037 276.695L610.523 278.111C610.523 286.396 608.893 293.737 605.635 300.133C602.481 306.426 598.067 311.355 592.391 314.92C586.715 318.485 580.25 320.268 572.998 320.268ZM575.363 354.718C567.584 354.718 560.437 353.197 553.92 350.156C547.509 347.22 542.148 342.972 537.838 337.414C536.576 335.841 536.05 334.164 536.261 332.381C536.576 330.703 537.522 329.339 539.099 328.291C540.78 327.137 542.568 326.718 544.46 327.032C546.352 327.452 547.875 328.396 549.032 329.864C551.975 333.534 555.654 336.418 560.069 338.515C564.588 340.613 569.791 341.662 575.678 341.662C581.039 341.662 585.926 340.351 590.341 337.729C594.756 335.212 598.278 331.489 600.905 326.56C603.532 321.737 604.846 315.916 604.846 309.1V286.133L609.734 274.178L619.037 276.695V309.886C619.037 318.276 617.144 325.826 613.36 332.538C609.681 339.355 604.531 344.755 597.909 348.74C591.391 352.725 583.877 354.718 575.363 354.718ZM575.363 307.369C581.143 307.369 586.242 306.058 590.656 303.437C595.071 300.815 598.54 297.197 601.062 292.583C603.585 287.969 604.846 282.673 604.846 276.695C604.846 270.718 603.585 265.422 601.062 260.808C598.54 256.089 595.071 252.418 590.656 249.796C586.242 247.175 581.143 245.864 575.363 245.864C569.687 245.864 564.588 247.175 560.069 249.796C555.654 252.418 552.185 256.089 549.663 260.808C547.14 265.422 545.879 270.718 545.879 276.695C545.879 282.673 547.14 287.969 549.663 292.583C552.185 297.197 555.654 300.815 560.069 303.437C564.588 306.058 569.687 307.369 575.363 307.369ZM645.805 319.639C643.597 319.639 641.812 318.957 640.444 317.594C639.078 316.231 638.394 314.501 638.394 312.403V240.83C638.394 238.628 639.078 236.898 640.444 235.639C641.812 234.276 643.597 233.594 645.805 233.594C647.907 233.594 649.642 234.276 651.008 235.639C652.375 236.898 653.057 238.628 653.057 240.83V312.403C653.057 314.501 652.375 316.231 651.008 317.594C649.642 318.957 647.907 319.639 645.805 319.639ZM645.647 218.65C643.02 218.65 640.759 217.707 638.867 215.819C636.975 213.931 636.029 211.624 636.029 208.898C636.029 206.171 636.975 203.916 638.867 202.133C640.866 200.246 643.177 199.302 645.805 199.302C648.327 199.302 650.535 200.246 652.427 202.133C654.425 203.916 655.422 206.171 655.422 208.898C655.422 211.624 654.476 213.931 652.584 215.819C650.692 217.707 648.38 218.65 645.647 218.65ZM750.318 319.796C748.218 319.796 746.43 319.115 744.958 317.751C743.592 316.283 742.908 314.553 742.908 312.56V272.92C742.908 266.733 741.753 261.699 739.439 257.819C737.128 253.834 734.027 250.898 730.137 249.01C726.249 247.017 721.781 246.021 716.735 246.021C712.005 246.021 707.748 246.965 703.964 248.853C700.18 250.74 697.133 253.257 694.819 256.403C692.612 259.549 691.508 263.167 691.508 267.257H682.048C682.155 260.65 683.836 254.778 687.094 249.639C690.354 244.396 694.768 240.306 700.338 237.369C705.909 234.328 712.163 232.808 719.1 232.808C726.459 232.808 733.028 234.381 738.809 237.527C744.591 240.568 749.164 245.077 752.526 251.055C755.89 257.032 757.571 264.321 757.571 272.92V312.56C757.571 314.553 756.836 316.283 755.364 317.751C753.998 319.115 752.317 319.796 750.318 319.796ZM684.256 319.796C682.155 319.796 680.42 319.115 679.053 317.751C677.687 316.388 677.003 314.658 677.003 312.56V240.83C677.003 238.628 677.687 236.898 679.053 235.639C680.42 234.276 682.155 233.594 684.256 233.594C686.463 233.594 688.197 234.276 689.459 235.639C690.827 236.898 691.508 238.628 691.508 240.83V312.56C691.508 314.658 690.827 316.388 689.459 317.751C688.197 319.115 686.463 319.796 684.256 319.796Z" fill="white"/>
</g>
<defs>
<clipPath id="clip0_5710_5305">
<rect width="676" height="175" fill="white" transform="translate(88 182)"/>
</clipPath>
</defs>
</svg>
