<svg width="851" height="538" viewBox="0 0 851 538" fill="none" xmlns="http://www.w3.org/2000/svg">
<path d="M805.894 0H45.106C20.1946 0 0 20.1755 0 45.0632V492.937C0 517.825 20.1946 538 45.106 538H805.894C830.805 538 851 517.825 851 492.937V45.0632C851 20.1755 830.805 0 805.894 0Z" fill="#010030"/>
<path d="M152.293 275.665C149.841 273.907 145.673 272.218 139.844 270.625V307.452C147.826 307.071 153.327 304.156 156.379 298.694C157.958 295.889 158.748 292.647 158.748 288.956C158.748 283.143 156.609 278.703 152.293 275.665Z" fill="white"/>
<path d="M120.041 228.923C117.425 232.422 116.133 236.088 116.133 239.914C116.133 244.531 117.658 248.14 120.75 250.756C123.868 253.358 127.995 255.196 133.2 256.218V223.312C127.055 223.57 122.67 225.41 120.041 228.923Z" fill="white"/>
<path d="M136.452 187C91.9962 187 56 223.024 56 267.465C56 311.907 92.0236 347.931 136.452 347.931C180.88 347.931 216.903 311.907 216.903 267.465C216.903 223.024 180.907 187 136.452 187ZM159.225 312.017C154.758 314.904 148.303 316.824 139.844 317.751V331.33H133.197V317.751C119.645 316.865 110.41 312.058 105.562 303.327C102.905 298.6 101.599 292.24 101.599 284.217H113.952C114.32 290.618 115.356 295.276 117.004 298.219C119.933 303.489 125.299 306.445 133.199 307.098V268.951C123.094 267.032 115.603 263.843 110.782 259.349C105.961 254.868 103.551 248.657 103.551 240.73C103.551 233.633 106.153 227.246 111.341 221.554C116.557 215.861 123.845 212.973 133.201 212.878V203.562H139.848V212.729C149.163 213.382 156.26 216.107 161.204 220.928C166.189 225.749 168.805 232.111 169.022 240.024H156.792C156.465 236.484 155.511 233.432 153.918 230.857C150.962 226.144 146.278 223.665 139.848 223.448V257.538C150.69 260.563 158.017 263.409 161.898 266.064C168.205 270.449 171.336 276.947 171.336 285.527C171.373 297.947 167.314 306.774 159.225 312.017Z" fill="white"/>
<path d="M716.109 190C671.614 190 635.609 226.056 635.609 270.493C635.609 314.958 671.655 351 716.109 351C760.564 351 796.609 314.958 796.609 270.493C796.612 226.042 760.592 190 716.109 190ZM746.705 322.958C743.163 324.661 739.387 325.52 735.368 325.52C732.437 325.52 727.518 324.403 720.595 322.14C713.7 319.904 708.262 318.788 704.242 318.788C700.549 318.788 697.02 319.413 693.722 320.695C691.76 321.485 689.28 322.793 686.185 324.646L678.95 314.248C684.429 310.39 688.885 306.113 692.279 301.465C695.645 296.804 697.322 291.737 697.322 286.272C697.322 284.705 697.022 282.892 696.381 280.793C695.972 279.457 695.332 277.673 694.391 275.369H678.2V267.753H689.689C689.689 267.997 688.871 266.471 687.236 263.174C685.587 259.876 684.511 257.478 683.965 255.966C683.501 254.548 683.106 252.899 682.725 251.047C682.385 249.154 682.22 247.137 682.22 245.011C682.22 237.395 685.34 230.553 691.541 224.544C697.714 218.535 706.599 215.51 718.183 215.51C729.073 215.51 737.291 218.494 742.877 224.434C748.45 230.402 751.353 238.824 751.517 249.7H737.944C737.944 242.328 736.226 236.728 732.794 232.912C729.345 229.082 724.112 227.161 717.08 227.161C710.267 227.161 705.073 228.947 701.572 232.544C698.057 236.141 696.285 240.489 696.285 245.612C696.285 248.147 696.844 250.762 697.947 253.434C699.023 256.117 701.355 260.915 704.939 267.796H728.952V275.426H708.223C708.714 277.662 709.068 279.418 709.271 280.699C709.502 281.967 709.584 283.275 709.584 284.636C709.584 289.515 708.127 294.352 705.224 299.109C702.266 303.877 697.687 308.579 691.434 313.282C694.8 311.578 698.112 310.201 701.382 309.221C704.653 308.225 707.855 307.737 710.964 307.737C714.479 307.737 719.154 308.582 724.905 310.326C730.711 312.057 734.472 312.916 736.297 312.916C738.586 312.916 740.671 312.466 742.608 311.594C743.752 311.048 745.565 309.931 747.95 308.228L754 318.134C751.312 320.258 748.873 321.88 746.705 322.958Z" fill="white"/>
<path d="M330.109 187C285.627 187 249.609 223.039 249.609 267.5C249.609 311.961 285.655 348 330.109 348C374.564 348 410.609 311.947 410.609 267.5C410.612 223.039 374.564 187 330.109 187ZM361.877 310.095C354.749 319.293 345.115 323.883 332.999 323.883C322.559 323.883 313.811 320.122 306.669 312.575C299.977 305.476 295.645 295.583 293.776 282.898H275.407L278.46 272.556H292.755C292.646 270.567 292.591 268.523 292.591 266.424C292.591 264.625 292.646 262.828 292.755 261.028H275.42L278.488 250.672H293.927C295.604 241.789 298.696 234.089 303.193 227.577C310.81 216.581 321.264 211.089 334.648 211.089C346.04 211.089 354.831 214.658 361.128 221.813C367.452 228.954 370.926 237.074 371.634 246.162H359.737C358.414 239.268 355.744 233.79 351.697 229.757C347.677 225.725 342.048 223.708 334.798 223.708C325.914 223.708 318.717 227.428 313.293 234.868C310.266 238.956 308.129 244.228 306.793 250.688H347.458L344.391 261.044H305.319C305.141 263.524 305.089 266.155 305.089 268.92C305.089 270.174 305.116 271.4 305.144 272.572H347.445L344.377 282.914H306.233C307.405 289.29 309.476 294.809 312.448 299.47C317.326 307.236 324.671 311.134 334.444 311.134C343.438 311.134 350.306 307.033 355.023 298.817C357.53 294.485 359.33 288.801 360.557 281.756H372.454C371.362 293.007 367.861 302.464 361.877 310.095Z" fill="white"/>
<path d="M523.109 187C478.627 187 442.609 223.056 442.609 267.493C442.609 311.972 478.655 348 523.109 348C567.564 348 603.609 311.958 603.609 267.493C603.612 223.042 567.564 187 523.109 187ZM562.263 247.394V257.954H542.393L532.334 275.041H559.698V285.601H530.452V322.516H515.625V285.601H487.201V275.041H513.761L503.703 257.954H483.506V247.394H497.502L476.951 212.427H494.382L523.041 265.367L551.809 212.427H569.282L548.635 247.394H562.263Z" fill="white"/>
</svg>
