<svg width="3672" height="608" viewBox="0 0 3672 608" fill="none" xmlns="http://www.w3.org/2000/svg">
<path d="M2445.29 157.135L2458.85 98" stroke="white" stroke-width="33.3333"/>
<path d="M2359.1 531.61L2372.7 472.486" stroke="white" stroke-width="33.3333"/>
<path d="M2241.08 313.257C2244.93 300.808 2251.16 290.296 2259.75 281.722C2268.34 273.147 2279.19 266.876 2292.3 262.908C2305.45 258.794 2320.69 257.254 2338.03 258.287C2355.55 259.22 2375.08 263.019 2396.61 269.685C2412.58 274.627 2428.98 280.991 2445.83 288.776C2462.83 296.606 2479.95 305.839 2497.2 316.477C2499.01 308.048 2498.86 299.735 2496.74 291.536C2494.67 283.191 2490.6 275.349 2484.52 268.012C2478.64 260.573 2470.78 253.807 2460.95 247.714C2451.27 241.667 2439.69 236.557 2426.22 232.385C2418.89 230.118 2410.7 228.063 2401.64 226.221C2392.58 224.38 2383.09 222.886 2373.18 221.742C2363.26 220.597 2353.28 219.915 2343.23 219.694C2333.34 219.519 2323.87 220.038 2314.82 221.251L2311.58 161.744C2322.48 161.267 2333.95 161.287 2345.99 161.804C2358.17 162.367 2370.44 163.436 2382.79 165.014C2395.19 166.444 2407.43 168.388 2419.51 170.843C2431.59 173.299 2443.12 176.228 2454.11 179.629C2502.58 194.638 2534.78 218.168 2550.7 250.221C2566.62 282.273 2566.66 323.857 2550.84 374.972L2515.88 487.894L2450.85 467.761L2458.4 443.375C2450.43 445.244 2441.88 446.689 2432.74 447.71C2423.74 448.776 2414.15 449.177 2403.96 448.911C2393.77 448.645 2383.03 447.567 2371.74 445.676C2360.55 443.977 2348.95 441.268 2336.94 437.55C2316.72 431.292 2299.61 423.586 2285.59 414.431C2271.72 405.321 2260.86 395.298 2253.01 384.361C2245.16 373.425 2240.21 361.941 2238.16 349.91C2236.3 337.777 2237.27 325.56 2241.08 313.257ZM2310.3 332.282C2308.99 336.529 2308.82 340.97 2309.79 345.605C2310.81 350.093 2313.26 354.623 2317.14 359.195C2321.06 363.621 2326.47 367.942 2333.35 372.158C2340.42 376.274 2349.3 379.987 2359.99 383.297C2371.42 386.834 2382.79 389.232 2394.12 390.492C2405.44 391.751 2416.24 392.125 2426.51 391.613C2436.78 391.101 2446.33 389.805 2455.16 387.724C2463.99 385.642 2471.62 383.029 2478.05 379.884L2481.59 368.46C2472.49 362.594 2463.33 357.19 2454.11 352.248C2445.03 347.351 2436.18 343.007 2427.57 339.216C2419.14 335.323 2411.04 331.933 2403.27 329.045C2395.64 326.202 2388.9 323.874 2383.04 322.06C2370.89 318.297 2360.53 315.974 2351.98 315.091C2343.42 314.208 2336.23 314.387 2330.38 315.628C2324.59 316.722 2320.1 318.783 2316.91 321.81C2313.73 324.837 2311.53 328.327 2310.3 332.282Z" fill="white"/>
<path d="M2642.84 369.059C2655.88 376.418 2669.06 383.088 2682.4 389.067C2695.89 394.894 2709.85 399.876 2724.26 404.016C2738.67 408.002 2753.77 411.069 2769.56 413.215C2785.51 415.362 2802.45 416.435 2820.39 416.435C2842.01 416.435 2860.41 415.055 2875.58 412.295C2890.76 409.382 2903.11 405.473 2912.61 400.566C2922.27 395.507 2929.25 389.527 2933.54 382.628C2937.99 375.729 2940.21 368.216 2940.21 360.09C2940.21 347.058 2934.77 336.785 2923.88 329.272C2912.99 321.606 2896.21 317.773 2873.51 317.773C2863.55 317.773 2853.05 318.463 2842.01 319.843C2830.97 321.07 2819.78 322.45 2808.43 323.983C2797.24 325.516 2786.12 326.973 2775.08 328.353C2764.2 329.579 2753.92 330.192 2744.27 330.192C2728.17 330.192 2712.68 328.123 2697.81 323.983C2683.09 319.843 2669.98 313.634 2658.48 305.354C2647.14 297.075 2638.09 286.726 2631.35 274.307C2624.6 261.888 2621.23 247.399 2621.23 230.841C2621.23 221.028 2622.53 211.292 2625.14 201.633C2627.9 191.974 2632.19 182.775 2638.01 174.036C2643.99 165.143 2651.66 156.94 2661.01 149.428C2670.37 141.762 2681.63 135.169 2694.82 129.649C2708.16 124.13 2723.49 119.837 2740.82 116.771C2758.29 113.551 2778.15 111.941 2800.38 111.941C2816.48 111.941 2832.65 112.861 2848.91 114.701C2865.16 116.387 2880.95 118.84 2896.28 122.06C2911.77 125.28 2926.64 129.189 2940.9 133.789C2955.16 138.235 2968.42 143.218 2980.69 148.738L2948.72 207.613C2938.6 203.167 2927.71 199.104 2916.06 195.424C2904.41 191.591 2892.22 188.294 2879.49 185.535C2866.77 182.775 2853.58 180.628 2839.94 179.095C2826.45 177.409 2812.65 176.565 2798.54 176.565C2778.46 176.565 2761.9 178.022 2748.87 180.935C2735.99 183.848 2725.71 187.604 2718.05 192.204C2710.38 196.65 2705.02 201.71 2701.95 207.383C2699.04 212.902 2697.58 218.422 2697.58 223.941C2697.58 234.674 2702.41 243.49 2712.07 250.389C2721.73 257.135 2736.45 260.508 2756.22 260.508C2764.2 260.508 2773.32 259.972 2783.59 258.898C2794.02 257.672 2804.9 256.369 2816.25 254.989C2827.75 253.609 2839.4 252.382 2851.21 251.309C2863.17 250.083 2874.74 249.469 2885.93 249.469C2907.09 249.469 2925.8 251.846 2942.05 256.599C2958.45 261.352 2972.18 268.174 2983.22 277.067C2994.25 285.806 3002.61 296.462 3008.28 309.034C3013.96 321.453 3016.79 335.405 3016.79 350.891C3016.79 371.589 3011.96 390.064 3002.3 406.316C2992.8 422.415 2979.15 436.06 2961.37 447.252C2943.74 458.292 2922.42 466.724 2897.43 472.55C2872.44 478.223 2844.61 481.06 2813.95 481.06C2793.71 481.06 2773.93 479.756 2754.61 477.15C2735.3 474.697 2716.74 471.17 2698.96 466.571C2681.33 461.818 2664.46 456.222 2648.36 449.782C2632.42 443.189 2617.62 435.983 2603.98 428.164L2642.84 369.059ZM3075.67 390.447C3075.67 377.415 3078.5 365.533 3084.18 354.8C3089.85 344.068 3098.36 334.869 3109.7 327.203C3121.05 319.383 3135.16 313.404 3152.02 309.264C3169.04 304.971 3188.82 302.825 3211.36 302.825C3228.07 302.825 3245.62 304.051 3264.02 306.504C3282.57 308.958 3301.66 312.714 3321.29 317.773C3320.52 309.188 3317.91 301.292 3313.47 294.085C3309.02 286.726 3302.81 280.44 3294.84 275.227C3287.02 269.861 3277.51 265.721 3266.32 262.808C3255.28 259.895 3242.71 258.438 3228.6 258.438C3220.94 258.438 3212.51 258.898 3203.31 259.818C3194.11 260.738 3184.6 262.118 3174.79 263.958C3164.98 265.798 3155.24 268.098 3145.58 270.857C3136.08 273.617 3127.18 276.914 3118.9 280.747L3098.21 224.861C3108.48 221.182 3119.44 217.809 3131.09 214.742C3142.9 211.676 3154.93 209.069 3167.2 206.923C3179.47 204.623 3191.73 202.86 3204 201.633C3216.26 200.407 3228.14 199.793 3239.64 199.793C3290.39 199.793 3328.11 212.749 3352.79 238.66C3377.48 264.571 3389.82 304.281 3389.82 357.79V476H3321.75V450.472C3314.69 454.612 3306.95 458.521 3298.52 462.201C3290.24 465.881 3281.19 469.101 3271.38 471.86C3261.57 474.62 3250.99 476.767 3239.64 478.3C3228.45 479.986 3216.57 480.83 3204 480.83C3182.84 480.83 3164.21 478.53 3148.11 473.93C3132.17 469.331 3118.83 462.968 3108.09 454.842C3097.36 446.716 3089.24 437.21 3083.72 426.324C3078.35 415.285 3075.67 403.326 3075.67 390.447ZM3147.42 388.147C3147.42 392.594 3148.57 396.887 3150.87 401.026C3153.17 405.013 3156.85 408.616 3161.91 411.835C3166.97 414.902 3173.41 417.432 3181.23 419.425C3189.2 421.265 3198.78 422.185 3209.98 422.185C3221.94 422.185 3233.51 421.111 3244.7 418.965C3255.9 416.818 3266.32 413.982 3275.98 410.456C3285.64 406.929 3294.38 402.866 3302.2 398.267C3310.02 393.667 3316.53 388.914 3321.75 384.008V372.049C3311.32 369.136 3300.97 366.683 3290.7 364.689C3280.58 362.696 3270.84 361.163 3261.49 360.09C3252.29 358.863 3243.55 358.02 3235.27 357.56C3227.15 357.1 3220.02 356.87 3213.89 356.87C3201.16 356.87 3190.58 357.713 3182.15 359.4C3173.72 361.086 3166.89 363.386 3161.68 366.299C3156.47 369.059 3152.79 372.355 3150.64 376.188C3148.49 380.021 3147.42 384.008 3147.42 388.147ZM3520.91 255.679H3455.37V204.623H3520.91V120.22H3588.98V204.623H3654.53V255.679H3588.98V476H3520.91V255.679Z" fill="white"/>
<path d="M729.056 101.541H801.959V397.065H1011.01V461H729.056V101.541ZM1060.46 324.392C1060.46 305.993 1064.21 288.438 1071.73 271.726C1079.24 254.861 1090.05 239.989 1104.15 227.11C1118.26 214.231 1135.51 203.958 1155.9 196.292C1176.44 188.626 1199.75 184.793 1225.81 184.793C1251.72 184.793 1275.03 188.703 1295.73 196.522C1316.58 204.188 1334.21 214.768 1348.62 228.26C1363.19 241.752 1374.3 257.621 1381.97 275.866C1389.79 294.111 1393.7 313.659 1393.7 334.511C1393.7 337.117 1393.62 339.954 1393.47 343.02C1393.47 345.933 1393.32 348.616 1393.01 351.069H1136.35C1139.26 359.195 1143.94 366.631 1150.38 373.377C1156.97 380.124 1165.18 385.95 1174.99 390.856C1184.8 395.762 1196.15 399.595 1209.02 402.355C1221.9 404.961 1236.16 406.265 1251.8 406.265C1267.44 406.265 1283 404.655 1298.49 401.435C1313.97 398.062 1328.77 393.846 1342.87 388.786L1365.87 440.762C1356.98 444.901 1347.93 448.581 1338.73 451.801C1329.69 454.867 1320.18 457.474 1310.22 459.62C1300.4 461.613 1290.05 463.146 1279.17 464.22C1268.44 465.293 1257.09 465.83 1245.13 465.83C1214.62 465.83 1187.87 462.15 1164.87 454.791C1141.87 447.431 1122.63 437.389 1107.14 424.663C1091.66 411.938 1080.01 396.989 1072.19 379.817C1064.37 362.645 1060.46 344.17 1060.46 324.392ZM1321.49 297.944C1319.03 290.431 1315.2 283.455 1309.99 277.016C1304.93 270.423 1298.56 264.75 1290.9 259.997C1283.23 255.091 1274.34 251.258 1264.22 248.498C1254.1 245.738 1242.99 244.358 1230.87 244.358C1217.99 244.358 1206.27 245.815 1195.69 248.728C1185.11 251.641 1175.83 255.551 1167.86 260.457C1159.89 265.363 1153.22 271.036 1147.85 277.476C1142.64 283.915 1138.8 290.738 1136.35 297.944H1321.49ZM1467.06 189.623H1535.14V212.621C1553.23 202.349 1570.48 195.143 1586.88 191.003C1603.44 186.863 1619.62 184.793 1635.41 184.793C1656.11 184.793 1675.27 187.86 1692.9 193.993C1710.54 199.972 1725.79 208.941 1738.67 220.9C1751.55 232.859 1761.59 247.808 1768.8 265.747C1776.16 283.532 1779.84 304.153 1779.84 327.611V461H1711.99V338.65C1711.99 323.778 1709.85 310.516 1705.55 298.864C1701.41 287.058 1695.36 277.169 1687.38 269.196C1679.56 261.07 1669.98 254.938 1658.64 250.798C1647.44 246.505 1634.87 244.358 1620.92 244.358C1613.56 244.358 1605.97 245.125 1598.15 246.658C1590.49 248.191 1582.9 250.415 1575.38 253.328C1568.02 256.087 1560.9 259.614 1554 263.907C1547.1 268.046 1540.81 272.799 1535.14 278.166V461H1467.06V189.623ZM1842.62 326.461C1842.62 304.843 1846.68 285.372 1854.81 268.046C1862.94 250.568 1874.13 235.696 1888.39 223.43C1902.8 211.011 1919.82 201.505 1939.44 194.913C1959.22 188.167 1980.61 184.793 2003.61 184.793C2013.42 184.793 2023.08 185.407 2032.58 186.633C2042.24 187.86 2051.44 189.546 2060.18 191.693C2069.08 193.839 2077.35 196.446 2085.02 199.512C2092.84 202.425 2099.74 205.645 2105.72 209.171V79.4624H2173.79V461H2105.72V435.472C2099.74 439.612 2092.69 443.521 2084.56 447.201C2076.43 450.881 2067.7 454.101 2058.34 456.86C2048.99 459.62 2039.25 461.767 2029.14 463.3C2019.17 464.986 2009.28 465.83 1999.47 465.83C1976.47 465.83 1955.31 462.457 1935.99 455.71C1916.83 448.964 1900.35 439.458 1886.55 427.193C1872.75 414.927 1861.94 400.285 1854.12 383.267C1846.45 366.095 1842.62 347.16 1842.62 326.461ZM1914.15 326.461C1914.15 337.347 1916.29 347.62 1920.58 357.279C1925.03 366.938 1931.32 375.447 1939.44 382.807C1947.72 390.013 1957.61 395.762 1969.11 400.055C1980.76 404.195 1993.79 406.265 2008.21 406.265C2017.41 406.265 2026.61 405.421 2035.8 403.735C2045 401.895 2053.82 399.365 2062.25 396.146C2070.84 392.926 2078.81 389.016 2086.17 384.417C2093.68 379.817 2100.2 374.681 2105.72 369.008V274.946C2098.82 269.426 2091.54 264.75 2083.87 260.917C2076.2 257.084 2068.39 253.941 2060.41 251.488C2052.44 249.035 2044.39 247.271 2036.26 246.198C2028.14 244.972 2020.24 244.358 2012.58 244.358C1996.94 244.358 1982.99 246.505 1970.72 250.798C1958.61 254.938 1948.34 260.687 1939.9 268.046C1931.62 275.406 1925.26 284.068 1920.81 294.034C1916.37 304 1914.15 314.809 1914.15 326.461Z" fill="white"/>
<circle cx="304" cy="304" r="277.5" stroke="white" stroke-width="43"/>
<path d="M327.008 156.039L340.05 85.8164" stroke="white" stroke-width="33.3333"/>
<path d="M238.508 527.863L251.595 457.654" stroke="white" stroke-width="33.3333"/>
<path d="M129.078 312.257C132.933 299.808 139.156 289.296 147.75 280.722C156.343 272.147 167.192 265.876 180.297 261.908C193.448 257.794 208.691 256.254 226.026 257.287C243.553 258.22 263.081 262.019 284.611 268.685C300.575 273.627 316.983 279.991 333.832 287.776C350.829 295.606 367.952 304.839 385.203 315.477C387.01 307.048 386.855 298.735 384.739 290.536C382.668 282.191 378.596 274.349 372.522 267.012C366.639 259.573 358.783 252.807 348.953 246.714C339.269 240.667 327.69 235.557 314.215 231.385C306.892 229.118 298.701 227.063 289.641 225.221C280.581 223.38 271.093 221.886 261.175 220.742C251.257 219.597 241.277 218.915 231.234 218.694C221.337 218.519 211.867 219.038 202.825 220.251L199.58 160.744C210.482 160.267 221.951 160.287 233.989 160.804C246.174 161.367 258.442 162.436 270.793 164.014C283.191 165.444 295.429 167.388 307.509 169.843C319.588 172.299 331.12 175.228 342.105 178.629C390.584 193.638 422.782 217.168 438.699 249.221C454.616 281.273 454.662 322.857 438.836 373.972L403.875 486.894L338.847 466.761L346.396 442.375C338.435 444.244 329.882 445.689 320.739 446.71C311.741 447.776 302.148 448.177 291.958 447.911C281.769 447.645 271.028 446.567 259.736 444.676C248.546 442.977 236.946 440.268 224.936 436.55C204.724 430.292 187.609 422.586 173.591 413.431C159.719 404.321 148.859 394.298 141.01 383.361C133.161 372.425 128.21 360.941 126.157 348.91C124.295 336.777 125.269 324.56 129.078 312.257ZM198.302 331.282C196.987 335.529 196.816 339.97 197.789 344.605C198.807 349.093 201.256 353.623 205.137 358.195C209.064 362.621 214.467 366.942 221.347 371.158C228.419 375.274 237.3 378.987 247.992 382.297C259.416 385.834 270.791 388.232 282.118 389.492C293.444 390.751 304.243 391.125 314.513 390.613C324.783 390.101 334.333 388.805 343.163 386.724C351.992 384.642 359.623 382.029 366.053 378.884L369.59 367.46C360.492 361.594 351.332 356.19 342.108 351.248C333.031 346.351 324.185 342.007 315.568 338.216C307.143 334.323 299.044 330.933 291.271 328.045C283.645 325.202 276.902 322.874 271.044 321.06C258.887 317.297 248.532 314.974 239.978 314.091C231.424 313.208 224.226 313.387 218.385 314.628C212.589 315.722 208.099 317.783 204.915 320.81C201.731 323.837 199.527 327.327 198.302 331.282Z" fill="white"/>
</svg>
