<svg width="724" height="602" viewBox="0 0 724 602" fill="none" xmlns="http://www.w3.org/2000/svg">
<circle cx="362" cy="301" r="277.5" stroke="#7000FF" stroke-width="43"/>
<path d="M394 151.529L409.53 82" stroke="#FF9900" stroke-width="33.3333"/>
<path d="M291 536.516L306.584 467" stroke="#FF9900" stroke-width="33.3333"/>
<path d="M187.08 309.257C190.934 296.808 197.158 286.296 205.751 277.722C214.345 269.147 225.194 262.876 238.299 258.908C251.45 254.794 266.693 253.254 284.028 254.287C301.555 255.22 321.083 259.019 342.613 265.685C358.577 270.627 374.985 276.991 391.834 284.776C408.831 292.606 425.954 301.839 443.205 312.477C445.012 304.048 444.857 295.735 442.741 287.536C440.67 279.191 436.598 271.349 430.523 264.012C424.641 256.573 416.785 249.807 406.955 243.714C397.271 237.667 385.692 232.557 372.217 228.385C364.894 226.118 356.703 224.063 347.643 222.221C338.583 220.38 329.095 218.886 319.177 217.742C309.259 216.597 299.279 215.915 289.236 215.694C279.339 215.519 269.869 216.038 260.827 217.251L257.582 157.744C268.484 157.267 279.953 157.287 291.991 157.804C304.176 158.367 316.444 159.436 328.795 161.014C341.192 162.444 353.431 164.388 365.511 166.843C377.59 169.299 389.122 172.228 400.107 175.629C448.586 190.638 480.784 214.168 496.701 246.221C512.618 278.273 512.664 319.857 496.838 370.972L461.877 483.894L396.849 463.761L404.398 439.375C396.437 441.244 387.884 442.689 378.741 443.71C369.743 444.776 360.15 445.177 349.96 444.911C339.77 444.645 329.03 443.567 317.738 441.676C306.548 439.977 294.948 437.268 282.938 433.55C262.726 427.292 245.611 419.586 231.593 410.431C217.721 401.321 206.861 391.298 199.012 380.361C191.163 369.425 186.212 357.941 184.159 345.91C182.297 333.777 183.271 321.56 187.08 309.257ZM256.304 328.282C254.989 332.529 254.818 336.97 255.791 341.605C256.809 346.093 259.258 350.623 263.139 355.195C267.066 359.621 272.469 363.942 279.349 368.158C286.421 372.274 295.302 375.987 305.994 379.297C317.418 382.834 328.793 385.232 340.12 386.492C351.446 387.751 362.245 388.125 372.515 387.613C382.785 387.101 392.335 385.805 401.164 383.724C409.994 381.642 417.625 379.029 424.055 375.884L427.592 364.46C418.494 358.594 409.334 353.19 400.11 348.248C391.033 343.351 382.187 339.007 373.57 335.216C365.145 331.323 357.046 327.933 349.273 325.045C341.647 322.202 334.904 319.874 329.046 318.06C316.889 314.297 306.534 311.974 297.98 311.091C289.426 310.208 282.228 310.387 276.387 311.628C270.591 312.722 266.101 314.783 262.917 317.81C259.733 320.837 257.529 324.327 256.304 328.282Z" fill="url(#paint0_linear_3076_5183)"/>
<defs>
<linearGradient id="paint0_linear_3076_5183" x1="251" y1="166.5" x2="548.5" y2="238" gradientUnits="userSpaceOnUse">
<stop offset="0.2049" stop-color="#7000FF"/>
<stop offset="0.205" stop-color="#FF9900"/>
<stop offset="0.645" stop-color="#FF9900"/>
<stop offset="0.6451" stop-color="#7000FF"/>
</linearGradient>
</defs>
</svg>
