<svg width="851" height="538" viewBox="0 0 851 538" fill="none" xmlns="http://www.w3.org/2000/svg">
<path d="M805.894 0H45.106C20.1946 0 0 20.1755 0 45.0632V492.937C0 517.825 20.1946 538 45.106 538H805.894C830.805 538 851 517.825 851 492.937V45.0632C851 20.1755 830.805 0 805.894 0Z" fill="#010030"/>
<g clip-path="url(#clip0_5146_5099)">
<path fill-rule="evenodd" clip-rule="evenodd" d="M497.152 137.45L435.262 267.45C435.027 267.934 434.952 268.48 435.049 269.009C435.146 269.538 435.41 270.022 435.802 270.39L602.952 430.56C603.427 431.016 604.059 431.27 604.717 431.27C605.375 431.27 606.007 431.016 606.482 430.56L773.632 270.4C774.024 270.032 774.288 269.548 774.385 269.019C774.482 268.49 774.408 267.944 774.172 267.46L712.282 137.46C712.083 137.024 711.761 136.654 711.357 136.395C710.953 136.136 710.482 135.999 710.002 136H499.452C498.97 135.994 498.496 136.128 498.088 136.385C497.68 136.642 497.355 137.012 497.152 137.45Z" fill="#50AF95"/>
<path fill-rule="evenodd" clip-rule="evenodd" d="M626.189 280.8C624.989 280.89 618.789 281.26 604.959 281.26C593.959 281.26 586.149 280.93 583.409 280.8C540.899 278.93 509.169 271.53 509.169 262.67C509.169 253.81 540.899 246.42 583.409 244.52V273.43C586.189 273.63 594.149 274.1 605.149 274.1C618.349 274.1 624.959 273.55 626.149 273.44V244.54C668.569 246.43 700.229 253.83 700.229 262.67C700.229 271.51 668.579 278.91 626.149 280.79L626.189 280.8ZM626.189 241.55V215.68H685.389V176.23H524.209V215.68H583.399V241.54C535.289 243.75 499.109 253.28 499.109 264.7C499.109 276.12 535.289 285.64 583.399 287.86V370.76H626.179V287.83C674.179 285.62 710.299 276.1 710.299 264.69C710.299 253.28 674.209 243.76 626.179 241.54L626.189 241.55Z" fill="white"/>
</g>
<g clip-path="url(#clip1_5146_5099)">
<path d="M226 431C308.571 431 375 364.571 375 282C375 199.429 308.571 133 226 133C143.429 133 77 199.429 77 282C77 364.571 143.429 431 226 431Z" fill="#2775CA"/>
<path d="M266.972 305.592C266.972 283.864 253.935 276.414 227.86 273.31C209.235 270.826 205.51 265.86 205.51 257.167C205.51 248.475 211.719 242.889 224.135 242.889C235.31 242.889 241.519 246.614 244.622 255.926C245.244 257.789 247.106 259.03 248.969 259.03H258.901C261.385 259.03 263.247 257.167 263.247 254.685V254.064C260.764 240.405 249.589 229.851 235.31 228.61V213.71C235.31 211.226 233.447 209.364 230.344 208.742H221.031C218.547 208.742 216.685 210.605 216.064 213.71V227.989C197.439 230.472 185.644 242.889 185.644 258.41C185.644 278.897 198.06 286.967 224.135 290.072C241.519 293.176 247.106 296.901 247.106 306.835C247.106 316.769 238.414 323.597 226.619 323.597C210.476 323.597 204.889 316.767 203.026 307.455C202.406 304.972 200.544 303.73 198.681 303.73H188.126C185.644 303.73 183.781 305.592 183.781 308.076V308.697C186.264 324.217 196.197 335.392 216.685 338.497V353.397C216.685 355.88 218.547 357.742 221.651 358.364H230.964C233.447 358.364 235.31 356.501 235.931 353.397V338.497C254.556 335.392 266.972 322.355 266.972 305.592Z" fill="white"/>
<path d="M194.336 370.777C145.911 353.395 121.077 299.382 139.082 251.577C148.395 225.502 168.882 205.636 194.336 196.323C196.82 195.082 198.061 193.22 198.061 190.114V181.423C198.061 178.939 196.82 177.077 194.336 176.457C193.715 176.457 192.473 176.457 191.852 177.077C132.873 195.702 100.59 258.407 119.215 317.386C130.39 352.152 157.086 378.848 191.852 390.023C194.336 391.264 196.82 390.023 197.44 387.539C198.061 386.92 198.061 386.298 198.061 385.057V376.364C198.061 374.502 196.198 372.02 194.336 370.777ZM260.145 177.077C257.661 175.836 255.177 177.077 254.557 179.561C253.936 180.182 253.936 180.802 253.936 182.045V190.736C253.936 193.22 255.798 195.702 257.661 196.945C306.086 214.327 330.92 268.339 312.915 316.145C303.602 342.22 283.115 362.086 257.661 371.398C255.177 372.639 253.936 374.502 253.936 377.607V386.298C253.936 388.782 255.177 390.645 257.661 391.264C258.282 391.264 259.523 391.264 260.145 390.645C319.123 372.02 351.407 309.314 332.782 250.336C321.607 214.948 294.29 188.252 260.145 177.077Z" fill="white"/>
</g>
<defs>
<clipPath id="clip0_5146_5099">
<rect width="339.43" height="295.27" fill="white" transform="translate(435 136)"/>
</clipPath>
<clipPath id="clip1_5146_5099">
<rect width="298" height="298" fill="white" transform="translate(77 133)"/>
</clipPath>
</defs>
</svg>
