<svg width="512" height="512" viewBox="0 0 512 512" fill="none" xmlns="http://www.w3.org/2000/svg">
<circle cx="256.001" cy="256.001" r="233.684" stroke="#7000FF" stroke-width="36.2105"/>
<path d="M275.371 131.4L286.354 72.2656" stroke="#FF9900" stroke-width="28.0702"/>
<path d="M202.531 458.83L213.552 399.707" stroke="#FF9900" stroke-width="28.0702"/>
<path d="M108.776 262.701C112.022 252.217 117.263 243.365 124.499 236.145C131.735 228.924 140.872 223.643 151.908 220.302C162.982 216.837 175.818 215.54 190.416 216.411C205.176 217.196 221.621 220.395 239.751 226.008C253.195 230.17 267.011 235.529 281.201 242.085C295.513 248.679 309.933 256.454 324.46 265.412C325.982 258.314 325.851 251.313 324.069 244.409C322.325 237.382 318.896 230.778 313.781 224.599C308.827 218.335 302.211 212.638 293.933 207.507C285.779 202.414 276.028 198.111 264.681 194.598C258.514 192.689 251.616 190.959 243.987 189.408C236.358 187.857 228.367 186.599 220.015 185.635C211.664 184.672 203.259 184.097 194.801 183.911C186.467 183.764 178.493 184.201 170.878 185.222L168.146 135.111C177.326 134.71 186.985 134.726 197.122 135.162C207.383 135.635 217.714 136.536 228.115 137.864C238.555 139.069 248.861 140.705 259.033 142.773C269.205 144.842 278.917 147.308 288.167 150.171C328.991 162.811 356.105 182.626 369.509 209.618C382.913 236.609 382.951 271.627 369.625 314.671L340.184 409.764L285.423 392.809L291.781 372.274C285.076 373.848 277.874 375.064 270.174 375.924C262.598 376.822 254.519 377.159 245.938 376.936C237.357 376.712 228.312 375.804 218.804 374.211C209.38 372.781 199.612 370.5 189.498 367.368C172.478 362.099 158.065 355.609 146.26 347.9C134.579 340.228 125.433 331.788 118.824 322.578C112.214 313.368 108.045 303.698 106.316 293.566C104.748 283.35 105.568 273.061 108.776 262.701ZM167.07 278.721C165.963 282.298 165.818 286.038 166.637 289.941C167.495 293.72 169.557 297.535 172.826 301.385C176.132 305.112 180.682 308.751 186.476 312.302C192.431 315.767 199.91 318.894 208.914 321.682C218.534 324.66 228.113 326.68 237.651 327.74C247.19 328.801 256.283 329.116 264.931 328.685C273.58 328.254 281.622 327.162 289.057 325.409C296.493 323.657 302.919 321.456 308.334 318.808L311.312 309.188C303.651 304.248 295.937 299.697 288.17 295.535C280.526 291.411 273.076 287.753 265.82 284.561C258.725 281.283 251.905 278.428 245.359 275.996C238.937 273.602 233.259 271.642 228.326 270.114C218.089 266.945 209.369 264.988 202.165 264.245C194.962 263.501 188.9 263.652 183.982 264.697C179.101 265.619 175.32 267.354 172.638 269.903C169.957 272.452 168.101 275.391 167.07 278.721Z" fill="url(#paint0_linear_3076_5243)"/>
<defs>
<linearGradient id="paint0_linear_3076_5243" x1="162.525" y1="142.736" x2="413.052" y2="202.946" gradientUnits="userSpaceOnUse">
<stop offset="0.2049" stop-color="#7000FF"/>
<stop offset="0.205" stop-color="#FF9900"/>
<stop offset="0.645" stop-color="#FF9900"/>
<stop offset="0.6451" stop-color="#7000FF"/>
</linearGradient>
</defs>
</svg>